HIERARCHY
ROOT Hips
{
	OFFSET 0.000000 1.471914 24.280096
	CHANNELS 6 Xposition Yposition Zposition Xrotation Yrotation Zrotation
	JOINT Spine
	{
		OFFSET 0.000000 0.900110 1.860670
		CHANNELS 6 Xposition Yposition Zposition Xrotation Yrotation Zrotation
		JOINT Spine1
		{
			OFFSET 0.000000 0.400320 2.270309
			CHANNELS 6 Xposition Yposition Zposition Xrotation Yrotation Zrotation
			JOINT Spine2
			{
				OFFSET 0.000000 0.200920 2.296560
				CHANNELS 6 Xposition Yposition Zposition Xrotation Yrotation Zrotation
				JOINT Spine3
				{
					OFFSET 0.000000 0.000000 2.305330
					CHANNELS 6 Xposition Yposition Zposition Xrotation Yrotation Zrotation
					JOINT Neck
					{
						OFFSET 0.000000 -0.864490 6.051487
						CHANNELS 6 Xposition Yposition Zposition Xrotation Yrotation Zrotation
						JOINT Head
						{
							OFFSET 0.000000 -0.550429 3.121674
							CHANNELS 6 Xposition Yposition Zposition Xrotation Yrotation Zrotation
							End Site
							{
								OFFSET 0.000000 0.000000 3.731750
							}
						}
					}
					JOINT RightShoulder
					{
						OFFSET -0.788280 -1.313800 4.256718
						CHANNELS 6 Xposition Yposition Zposition Xrotation Yrotation Zrotation
						JOINT RightArm
						{
							OFFSET -3.915130 0.000000 0.000000
							CHANNELS 6 Xposition Yposition Zposition Xrotation Yrotation Zrotation
							JOINT RightForeArm
							{
								OFFSET -6.914910 0.000000 0.000000
								CHANNELS 6 Xposition Yposition Zposition Xrotation Yrotation Zrotation
								JOINT RightHand
								{
									OFFSET -6.096219 0.000000 0.000000
									CHANNELS 6 Xposition Yposition Zposition Xrotation Yrotation Zrotation
									JOINT RightHandEnd
									{
										OFFSET -1.749950 0.000000 0.000000
										CHANNELS 6 Xposition Yposition Zposition Xrotation Yrotation Zrotation
										End Site
										{
											OFFSET -1.749950 0.000000 0.000000
										}
									}
									JOINT RightHandThumb1
									{
										OFFSET -0.699980 -1.166630 -0.466648
										CHANNELS 6 Xposition Yposition Zposition Xrotation Yrotation Zrotation
										End Site
										{
											OFFSET -1.690319 -0.452920 0.000000
										}
									}
								}
							}
						}
					}
					JOINT LeftShoulder
					{
						OFFSET 0.788280 -1.313800 4.256718
						CHANNELS 6 Xposition Yposition Zposition Xrotation Yrotation Zrotation
						JOINT LeftArm
						{
							OFFSET 3.915130 0.000000 0.000000
							CHANNELS 6 Xposition Yposition Zposition Xrotation Yrotation Zrotation
							JOINT LeftForeArm
							{
								OFFSET 6.914910 0.000000 0.000000
								CHANNELS 6 Xposition Yposition Zposition Xrotation Yrotation Zrotation
								JOINT LeftHand
								{
									OFFSET 6.096219 0.000000 0.000000
									CHANNELS 6 Xposition Yposition Zposition Xrotation Yrotation Zrotation
									JOINT LeftHandEnd
									{
										OFFSET 1.749950 0.000000 0.000000
										CHANNELS 6 Xposition Yposition Zposition Xrotation Yrotation Zrotation
										End Site
										{
											OFFSET 1.749950 0.000000 0.000000
										}
									}
									JOINT LeftHandThumb1
									{
										OFFSET 0.699980 -1.166630 -0.466648
										CHANNELS 6 Xposition Yposition Zposition Xrotation Yrotation Zrotation
										End Site
										{
											OFFSET 1.690319 -0.452920 0.000000
										}
									}
								}
							}
						}
					}
				}
			}
		}
	}
	JOINT RightUpLeg
	{
		OFFSET -2.338570 -0.252550 -0.551512
		CHANNELS 6 Xposition Yposition Zposition Xrotation Yrotation Zrotation
		JOINT RightLeg
		{
			OFFSET 0.000000 0.000000 -10.744959
			CHANNELS 6 Xposition Yposition Zposition Xrotation Yrotation Zrotation
			JOINT RightFoot
			{
				OFFSET 0.000000 -0.000001 -10.930849
				CHANNELS 6 Xposition Yposition Zposition Xrotation Yrotation Zrotation
				JOINT RightToeBase
				{
					OFFSET 0.000000 -4.087269 -1.487650
					CHANNELS 6 Xposition Yposition Zposition Xrotation Yrotation Zrotation
					End Site
					{
						OFFSET 0.000000 -1.891870 0.000000
					}
				}
			}
		}
	}
	JOINT LeftUpLeg
	{
		OFFSET 2.338570 -0.252550 -0.551512
		CHANNELS 6 Xposition Yposition Zposition Xrotation Yrotation Zrotation
		JOINT LeftLeg
		{
			OFFSET 0.000000 0.000000 -10.744959
			CHANNELS 6 Xposition Yposition Zposition Xrotation Yrotation Zrotation
			JOINT LeftFoot
			{
				OFFSET 0.000000 -0.000001 -10.930849
				CHANNELS 6 Xposition Yposition Zposition Xrotation Yrotation Zrotation
				JOINT LeftToeBase
				{
					OFFSET 0.000000 -4.087269 -1.487650
					CHANNELS 6 Xposition Yposition Zposition Xrotation Yrotation Zrotation
					End Site
					{
						OFFSET 0.000000 -1.891870 0.000000
					}
				}
			}
		}
	}
}
MOTION
Frames: 5
Frame Time: 0.041667
-0.000045 26.804996 40.792942 -10.026328 5.613900 -11.351093 0.000000 0.900106 1.860663 23.547311 -5.268788 -0.518881 0.000003 0.400309 2.270313 -0.000001 -0.000000 0.000001 0.000007 0.200922 2.296566 0.000000 0.000000 0.000000 0.000005 -0.000000 2.305335 0.000025 -0.000001 -0.340676 0.000000 -0.864484 6.051485 2.280232 -2.732602 -179.877430 0.000002 -0.550424 3.121689 0.000000 -0.000000 -0.000001 -0.788283 -1.313782 4.256727 -161.295518 56.456889 -16.929505 -3.915145 0.000008 0.000000 0.000001 0.000000 -0.000002 -6.914903 0.000007 0.000010 0.000009 0.000009 -24.446683 -6.096216 -0.000007 -0.000002 -0.000102 -0.000118 0.000007 -1.749963 0.000009 0.000003 -0.000000 -0.000002 0.000001 -0.699982 -1.166620 -0.466648 0.000000 -0.000000 0.000003 0.788276 -1.313793 4.256732 -172.089717 -56.174529 6.972078 3.915140 0.000003 0.000008 0.000000 -0.000004 0.000003 6.914918 0.000014 -0.000019 0.000006 0.000001 26.738538 6.096224 0.000005 -0.000008 -0.000090 0.000126 -0.000020 1.749943 -0.000010 -0.000017 0.000001 -0.000005 0.000003 0.699970 -1.166627 -0.466663 -0.000003 -0.000007 0.000003 -2.338572 -0.252551 -0.551499 20.130666 -5.729402 -0.445504 -0.000000 0.000003 -10.744962 8.680300 0.688066 -1.049641 0.000003 0.000019 -10.930850 -0.000026 0.000001 -0.000001 0.000003 -4.087273 -1.487645 0.000000 0.000001 0.000003 2.338570 -0.252554 -0.551503 19.613559 -3.468161 -0.436501 -0.000001 0.000003 -10.744966 8.796873 0.656626 -0.718744 -0.000002 0.000011 -10.930838 -0.000029 -0.000001 -0.000002 0.000001 -4.087271 -1.487660 0.000000 -0.000001 -0.000002 
-0.000049 26.804993 40.792934 -9.282911 5.573473 -11.362385 0.000000 0.900108 1.860661 21.664674 -5.398931 -0.430449 0.000004 0.400311 2.270306 -0.000001 -0.000000 -0.000000 0.000007 0.200926 2.296570 -0.000001 0.000000 0.000000 0.000006 -0.000006 2.305347 0.000025 -0.000001 -1.473416 0.000001 -0.864485 6.051486 3.349293 -2.081818 -179.739269 0.000001 -0.550423 3.121677 0.000000 -0.000001 0.000001 -0.788284 -1.313785 4.256734 -180.014444 54.716990 -0.966884 -3.915143 0.000006 0.000007 0.000000 -0.000001 0.000001 -6.914908 0.000007 0.000005 0.000009 0.000008 -26.204909 -6.096217 -0.000006 -0.000003 -0.000100 -0.000120 0.000006 -1.749965 0.000015 0.000013 0.000002 0.000004 -0.000000 -0.699989 -1.166618 -0.466638 0.000002 0.000004 -0.000000 0.788274 -1.313798 4.256731 -165.681770 -50.298725 12.101005 3.915139 -0.000002 0.000015 0.000002 -0.000005 -0.000000 6.914917 0.000019 -0.000012 0.000004 -0.000001 30.459580 6.096227 0.000006 -0.000008 -0.000090 0.000126 -0.000018 1.749941 -0.000010 -0.000011 -0.000002 -0.000008 0.000004 0.699966 -1.166626 -0.466663 0.000000 -0.000004 -0.000004 -2.338573 -0.252546 -0.551496 18.981516 -6.071545 -0.378113 0.000000 0.000003 -10.744961 9.423094 0.873602 -1.175708 0.000002 0.000014 -10.930855 -0.000031 0.000000 -0.000000 0.000003 -4.087276 -1.487649 -0.000003 0.000000 0.000002 2.338571 -0.252552 -0.551507 18.301572 -3.555827 -0.366567 -0.000001 0.000006 -10.744956 8.934334 1.116795 -0.725114 -0.000003 0.000013 -10.930833 -0.000027 -0.000000 -0.000001 0.000001 -4.087278 -1.487659 0.000004 -0.000000 -0.000000 
-0.000041 26.804991 40.792961 -8.415307 5.182745 -11.281880 0.000000 0.900103 1.860665 19.226322 -5.028166 -0.436002 0.000004 0.400312 2.270317 -0.000002 -0.000000 0.000000 0.000008 0.200925 2.296560 -0.000002 -0.000000 -0.000002 0.000007 -0.000004 2.305351 0.000025 -0.000000 -1.809252 -0.000000 -0.864485 6.051484 5.233082 -1.881158 -180.237040 0.000002 -0.550420 3.121677 -0.000000 0.000000 0.000000 -0.788287 -1.313785 4.256725 -189.998104 48.307093 4.931152 -3.915139 0.000005 0.000004 0.000001 -0.000008 0.000002 -6.914904 0.000008 0.000001 0.000011 -0.000000 -29.563186 -6.096216 -0.000010 0.000004 -0.000100 -0.000119 0.000006 -1.749965 0.000012 -0.000000 -0.000000 0.000004 0.000002 -0.699983 -1.166619 -0.466655 0.000000 0.000000 0.000001 0.788275 -1.313797 4.256725 -174.739762 -42.589354 4.154194 3.915138 -0.000002 0.000012 0.000000 0.000002 -0.000001 6.914911 0.000017 -0.000008 0.000004 -0.000001 32.350604 6.096234 0.000010 -0.000003 -0.000088 0.000126 -0.000019 1.749939 -0.000005 -0.000015 -0.000005 -0.000003 0.000002 0.699961 -1.166622 -0.466659 -0.000003 -0.000003 -0.000002 -2.338572 -0.252552 -0.551493 17.883086 -5.688804 -0.405590 0.000000 0.000005 -10.744963 9.726124 0.708951 -1.174876 0.000002 0.000015 -10.930849 -0.000029 0.000002 -0.000001 0.000004 -4.087271 -1.487649 -0.000001 0.000000 0.000002 2.338571 -0.252559 -0.551501 17.101482 -3.742010 -0.389894 -0.000001 0.000006 -10.744957 8.539889 2.259693 -0.743862 -0.000002 0.000011 -10.930836 -0.000029 -0.000001 -0.000003 0.000000 -4.087269 -1.487658 -0.000000 -0.000001 0.000000 
-0.000049 26.804998 40.793045 -8.302652 4.609313 -11.568524 -0.000000 0.900101 1.860670 17.850397 -3.852788 -0.534704 0.000003 0.400311 2.270313 -0.000002 0.000000 0.000002 0.000008 0.200922 2.296555 -0.000002 -0.000001 -0.000001 0.000006 -0.000002 2.305335 0.000025 -0.000002 -2.859636 0.000000 -0.864479 6.051472 6.799645 -2.094745 -179.760634 0.000002 -0.550419 3.121689 0.000000 0.000000 -0.000000 -0.788285 -1.313782 4.256723 -194.422660 40.625388 4.621496 -3.915136 0.000006 -0.000004 0.000003 -0.000003 0.000001 -6.914910 0.000009 0.000002 0.000007 0.000003 -32.901807 -6.096219 -0.000006 -0.000006 -0.000100 -0.000114 0.000006 -1.749964 0.000013 0.000003 0.000000 0.000006 0.000000 -0.699982 -1.166618 -0.466649 0.000002 0.000003 0.000002 0.788275 -1.313792 4.256724 -177.187101 -31.166498 3.340822 3.915139 0.000001 0.000019 0.000001 0.000002 -0.000000 6.914917 0.000016 -0.000001 0.000004 0.000004 32.737933 6.096227 0.000009 0.000002 -0.000088 0.000123 -0.000017 1.749949 -0.000004 -0.000007 0.000003 -0.000003 -0.000001 0.699969 -1.166620 -0.466656 0.000002 -0.000002 -0.000001 -2.338573 -0.252551 -0.551497 17.058348 -4.971835 -0.511333 -0.000001 0.000004 -10.744962 10.019640 0.258658 -1.156313 0.000003 0.000020 -10.930851 -0.000029 0.000000 -0.000002 0.000003 -4.087274 -1.487646 0.000003 0.000001 0.000003 2.338569 -0.252555 -0.551502 16.717407 -3.151479 -0.502571 -0.000002 0.000004 -10.744959 9.025792 2.748342 -0.756622 -0.000003 0.000016 -10.930835 -0.000027 -0.000001 -0.000001 0.000001 -4.087271 -1.487658 -0.000003 -0.000001 -0.000001 
-0.000037 26.805029 40.793213 -7.682397 4.482133 -12.829737 0.000000 0.900102 1.860662 15.151233 -3.479830 -0.584032 0.000004 0.400311 2.270317 -0.000003 0.000000 -0.000001 0.000008 0.200928 2.296568 -0.000001 0.000000 0.000001 0.000005 -0.000002 2.305343 0.000025 0.000000 -2.735413 0.000000 -0.864483 6.051481 9.543413 -1.871360 -179.761112 0.000002 -0.550420 3.121681 -0.000001 -0.000000 0.000002 -0.788286 -1.313780 4.256729 -194.049212 30.307909 -2.599669 -3.915147 0.000001 0.000004 0.000001 -0.000000 -0.000000 -6.914914 0.000011 0.000009 0.000008 0.000007 -35.844942 -6.096220 -0.000005 -0.000006 -0.000105 -0.000119 0.000006 -1.749960 0.000014 -0.000000 0.000003 0.000000 0.000001 -0.699982 -1.166620 -0.466652 0.000002 0.000000 0.000006 0.788277 -1.313793 4.256726 -175.136637 -18.003539 6.296249 3.915141 0.000001 0.000011 0.000000 0.000001 -0.000000 6.914921 0.000013 -0.000001 0.000002 0.000009 41.158877 6.096231 0.000007 -0.000005 -0.000093 0.000130 -0.000013 1.749943 -0.000006 -0.000022 -0.000003 -0.000003 0.000001 0.699967 -1.166626 -0.466668 0.000000 -0.000002 -0.000003 -2.338573 -0.252553 -0.551499 16.252951 -4.806670 -0.624909 0.000000 0.000004 -10.744963 9.528486 0.027618 -1.152322 0.000002 0.000019 -10.930848 -0.000029 0.000002 0.000000 0.000002 -4.087271 -1.487646 -0.000002 -0.000000 0.000001 2.338570 -0.252560 -0.551502 15.621426 -3.093361 -0.603237 -0.000002 0.000003 -10.744957 9.996552 3.452467 -0.910251 -0.000001 0.000015 -10.930834 -0.000029 -0.000001 -0.000002 0.000001 -4.087266 -1.487657 -0.000002 0.000000 -0.000002 
